<svg width="14" height="21" viewBox="0 0 14 21" fill="none" xmlns="http://www.w3.org/2000/svg">
<path d="M8.28571 10.4545C8.28571 10.7243 8.21031 10.9879 8.06903 11.2121C7.92776 11.4364 7.72696 11.6112 7.49202 11.7144C7.25709 11.8176 6.99857 11.8446 6.74917 11.792C6.49977 11.7394 6.27067 11.6095 6.09086 11.4188C5.91105 11.2281 5.7886 10.9851 5.73899 10.7206C5.68938 10.4561 5.71484 10.1819 5.81215 9.93271C5.90947 9.68354 6.07426 9.47057 6.2857 9.32073C6.49713 9.17089 6.74571 9.09091 7 9.09091C7.34099 9.09091 7.66802 9.23458 7.90914 9.49031C8.15026 9.74605 8.28571 10.0929 8.28571 10.4545ZM13 7.72728V13.6364C13 13.998 12.8645 14.3449 12.6234 14.6006C12.3823 14.8563 12.0553 15 11.7143 15H2.28571C1.94472 15 1.6177 14.8563 1.37658 14.6006C1.13546 14.3449 1 13.998 1 13.6364V7.72728C1 7.36562 1.13546 7.01878 1.37658 6.76304C1.6177 6.50731 1.94472 6.36365 2.28571 6.36365H4.54857L4.68571 5.9091C4.77462 5.64239 4.93954 5.4116 5.15761 5.24872C5.37569 5.08584 5.63613 4.99892 5.90286 5.00001H8.09714C8.36648 5.00054 8.62886 5.09078 8.84724 5.25797C9.06563 5.42516 9.229 5.66087 9.31429 5.93183L9.45143 6.38637H11.7143C12.0516 6.38632 12.3754 6.52687 12.6159 6.7777C12.8564 7.02854 12.9944 7.36957 13 7.72728ZM9.14286 10.4545C9.14286 10.005 9.01718 9.56564 8.78172 9.19189C8.54626 8.81814 8.21159 8.52684 7.82004 8.35483C7.42848 8.18281 6.99762 8.1378 6.58195 8.22549C6.16628 8.31319 5.78446 8.52964 5.48477 8.84749C5.18509 9.16534 4.981 9.5703 4.89832 10.0112C4.81563 10.452 4.85807 10.909 5.02026 11.3243C5.18245 11.7396 5.4571 12.0945 5.80949 12.3443C6.16188 12.594 6.57618 12.7273 7 12.7273C7.56832 12.7273 8.11337 12.4878 8.51523 12.0616C8.91709 11.6354 9.14286 11.0573 9.14286 10.4545Z" fill="white"/>
</svg>
