<svg width="42" height="42" viewBox="0 0 42 42" fill="none" xmlns="http://www.w3.org/2000/svg">
<path d="M29.4542 23.501C28.9897 23.501 28.5941 23.1458 28.5525 22.6745C28.508 22.1761 28.8769 21.7361 29.3753 21.6921H29.3762C29.437 21.1955 29.8856 20.8452 30.3863 20.9032C30.8833 20.9644 31.2363 21.4166 31.1751 21.9133C31.0714 22.7565 30.3813 23.4226 29.5348 23.4974C29.5076 23.5001 29.4805 23.501 29.4542 23.501Z" fill="black"/>
<path d="M14.7349 24.7887C14.27 24.7887 13.8744 24.433 13.8331 23.9613C13.7892 23.4624 14.1585 23.0234 14.6569 22.9794L29.3758 21.6916C29.8769 21.6454 30.3137 22.017 30.3572 22.5154C30.4012 23.0143 30.0319 23.4534 29.5335 23.4973L14.8146 24.7851C14.7883 24.7874 14.7611 24.7887 14.7349 24.7887Z" fill="black"/>
<path d="M30.2764 22.7091C30.2392 22.7091 30.202 22.7068 30.1644 22.7023C29.6674 22.6411 29.3144 22.1889 29.3755 21.6922L30.4753 12.7643C30.5369 12.2677 30.9923 11.9147 31.4853 11.9759C31.9824 12.0371 32.3354 12.4893 32.2742 12.9859L31.1745 21.9138C31.1183 22.3728 30.7272 22.7091 30.2764 22.7091Z" fill="black"/>
<path d="M12.3213 15.448C11.8564 15.448 11.4608 15.0923 11.4196 14.6206C11.3756 14.1217 11.7449 13.6826 12.2433 13.6386L31.2964 11.9716C31.7966 11.9258 32.2343 12.2969 32.2778 12.7954C32.3218 13.2943 31.9525 13.7333 31.454 13.7773L12.401 15.4443C12.3743 15.4466 12.3476 15.448 12.3213 15.448Z" fill="black"/>
<path d="M12.085 13.6772C11.6382 13.6772 11.249 13.3464 11.1882 12.891V12.8901C10.688 12.8901 10.282 12.4846 10.282 11.9839C10.282 11.4832 10.688 11.0776 11.1882 11.0776C12.0927 11.0776 12.8648 11.7537 12.9849 12.6504C13.051 13.1466 12.7026 13.6024 12.2064 13.6691C12.1652 13.6745 12.1253 13.6772 12.085 13.6772Z" fill="black"/>
<path d="M11.1878 12.8906H9.625C9.12475 12.8906 8.71875 12.4846 8.71875 11.9844C8.71875 11.4841 9.12475 11.0781 9.625 11.0781H11.1878C11.6881 11.0781 12.0941 11.4841 12.0941 11.9844C12.0941 12.4846 11.6885 12.8906 11.1878 12.8906Z" fill="black"/>
<path d="M13.3512 23.1726C12.9044 23.1726 12.5147 22.8418 12.4545 22.3859L11.188 12.8907C11.1218 12.3945 11.4703 11.9387 11.9665 11.8725C12.4595 11.8054 12.9189 12.1548 12.9846 12.651L14.2507 22.1467C14.3168 22.6429 13.9684 23.0987 13.4722 23.1649C13.4314 23.1703 13.3915 23.1726 13.3512 23.1726Z" fill="black"/>
<path d="M17.4268 31.9219C15.7076 31.9219 14.2549 30.4692 14.2549 28.75C14.2549 27.0308 15.7076 25.5781 17.4268 25.5781C19.1459 25.5781 20.5986 27.0308 20.5986 28.75C20.5986 30.4692 19.1459 31.9219 17.4268 31.9219ZM17.4268 27.3906C16.7027 27.3906 16.0674 28.0259 16.0674 28.75C16.0674 29.4741 16.7027 30.1094 17.4268 30.1094C18.1509 30.1094 18.7861 29.4741 18.7861 28.75C18.7861 28.0259 18.1504 27.3906 17.4268 27.3906Z" fill="black"/>
<path d="M26.0361 31.9219C24.317 31.9219 22.8643 30.4692 22.8643 28.75C22.8643 27.0308 24.317 25.5781 26.0361 25.5781C27.7553 25.5781 29.208 27.0308 29.208 28.75C29.208 30.4692 27.7553 31.9219 26.0361 31.9219ZM26.0361 27.3906C25.312 27.3906 24.6768 28.0259 24.6768 28.75C24.6768 29.4741 25.312 30.1094 26.0361 30.1094C26.7602 30.1094 27.3955 29.4741 27.3955 28.75C27.3955 28.0259 26.7598 27.3906 26.0361 27.3906Z" fill="black"/>
<path d="M15.1448 24.7458C13.794 24.7458 12.6358 23.7498 12.4541 22.3859C12.3879 21.8897 12.7368 21.4339 13.233 21.3682C13.7256 21.3007 14.185 21.6509 14.2507 22.1471C14.3151 22.6288 14.7519 22.9682 15.2277 22.9301C15.7374 22.8866 16.1661 23.2559 16.2096 23.7539C16.2536 24.2523 15.8843 24.6919 15.3863 24.7358C15.3052 24.7422 15.2241 24.7458 15.1448 24.7458Z" fill="black"/>
</svg>
