<svg width="8" height="14" viewBox="0 0 8 14" fill="none" xmlns="http://www.w3.org/2000/svg">
<path d="M0.940948 13.9998C0.757525 14.0043 0.577403 13.9443 0.425624 13.8281C0.273844 13.7118 0.157947 13.545 0.0940481 13.351C0.030149 13.157 0.021422 12.9453 0.0690802 12.7455C0.116738 12.5456 0.218413 12.3676 0.35997 12.2359L5.76116 7.0161L0.35997 1.79814C0.262048 1.71695 0.180041 1.61388 0.119084 1.49528C0.0581275 1.37668 0.0195343 1.24513 0.00572114 1.10893C-0.00809202 0.972724 0.00317275 0.834802 0.0388099 0.703737C0.074447 0.572674 0.133688 0.451283 0.212825 0.347244C0.291962 0.243205 0.389288 0.158812 0.49871 0.0991688C0.608131 0.0395269 0.727291 0.00602818 0.848725 0.000741959C0.97016 -0.0045433 1.09125 0.0184355 1.20442 0.0683889C1.31759 0.118342 1.4204 0.194116 1.50641 0.290967L7.69028 6.25959C7.78739 6.35307 7.86537 6.46911 7.91884 6.59989C7.97231 6.73066 8 6.873 8 7.01702C8 7.16104 7.97231 7.30338 7.91884 7.43415C7.86537 7.56493 7.78739 7.68108 7.69028 7.77457L1.50641 13.7489C1.35019 13.9055 1.14983 13.9944 0.940948 14L0.940948 13.9998Z" fill="black"/>
</svg>
