<svg width="42" height="42" viewBox="0 0 42 42" fill="none" xmlns="http://www.w3.org/2000/svg">
<path d="M29.41 20.0032L28.9036 17.9848C29.042 17.9555 29.1459 17.8331 29.1459 17.6865V17.361C29.1459 16.6544 28.569 16.0796 27.8599 16.0796H25.5533V15.4084C25.5533 15.0607 25.2694 14.7778 24.9205 14.7778H13.1626C12.8137 14.7778 12.5298 15.0607 12.5298 15.4084V20.9408C12.5298 21.1093 12.6669 21.2459 12.836 21.2459C13.0051 21.2459 13.1422 21.1093 13.1422 20.9408V15.4084C13.1422 15.3971 13.1513 15.388 13.1626 15.388H24.9204C24.9317 15.388 24.9408 15.3971 24.9408 15.4084V20.9409C24.9408 21.1093 25.0779 21.246 25.247 21.246C25.4161 21.246 25.5532 21.1094 25.5532 20.9409V20.595H29.1653C29.1656 20.595 29.1658 20.5951 29.1661 20.5951C29.1664 20.5951 29.1666 20.595 29.1669 20.595C29.6114 20.5953 29.9888 20.886 30.1184 21.2866H29.1663C28.9972 21.2866 28.8601 21.4232 28.8601 21.5917V22.2425C28.8601 22.7697 29.2905 23.1985 29.8195 23.1985H30.1665V24.5409H29.3659C29.1029 23.7842 28.381 23.2391 27.5333 23.2391C26.6855 23.2391 25.9636 23.7842 25.7006 24.5409H25.5532V22.2425C25.5532 22.074 25.4161 21.9374 25.247 21.9374C25.0779 21.9374 24.9408 22.074 24.9408 22.2425V24.5408H18.5879C18.3249 23.7841 17.603 23.2391 16.7553 23.2391C15.9076 23.2391 15.1856 23.7841 14.9226 24.5408H13.1626C13.1513 24.5408 13.1422 24.5317 13.1422 24.5205V23.8493H14.469C14.6381 23.8493 14.7752 23.7127 14.7752 23.5442C14.7752 23.3757 14.6382 23.2391 14.469 23.2391H11.5296C11.3605 23.2391 11.2234 23.3757 11.2234 23.5442C11.2234 23.7127 11.3605 23.8493 11.5296 23.8493H12.5298V24.5205C12.5298 24.8682 12.8137 25.151 13.1626 25.151H14.8166C14.8165 25.1578 14.8161 25.1646 14.8161 25.1714C14.8161 26.2368 15.686 27.1036 16.7553 27.1036C17.8245 27.1036 18.6945 26.2368 18.6945 25.1714C18.6945 25.1645 18.694 25.1578 18.694 25.151H25.5946C25.5945 25.1578 25.594 25.1646 25.594 25.1714C25.594 26.2368 26.464 27.1036 27.5333 27.1036C28.6025 27.1036 29.4725 26.2368 29.4725 25.1714C29.4725 25.1645 29.472 25.1578 29.4719 25.151H30.4727C30.6418 25.151 30.7789 25.0145 30.7789 24.8459V21.5916C30.779 20.7881 30.184 20.1206 29.41 20.0032ZM25.5533 16.6898H27.8599C28.2314 16.6898 28.5336 16.9909 28.5336 17.361V17.3813H25.5533V16.6898ZM25.5533 19.9848V17.9915H28.2741L28.7742 19.9848H25.5533ZM16.7553 26.4935C16.0237 26.4935 15.4285 25.9005 15.4285 25.1714C15.4285 24.4424 16.0237 23.8494 16.7553 23.8494C17.4869 23.8494 18.0821 24.4424 18.0821 25.1714C18.0821 25.9005 17.4869 26.4935 16.7553 26.4935ZM27.5333 26.4935C26.8017 26.4935 26.2065 25.9005 26.2065 25.1714C26.2065 24.4424 26.8017 23.8494 27.5333 23.8494C28.2649 23.8494 28.8602 24.4424 28.8602 25.1714C28.8602 25.9005 28.2649 26.4935 27.5333 26.4935ZM30.1666 22.5883H29.8196C29.6282 22.5883 29.4725 22.4332 29.4725 22.2425V21.8967H30.1666V22.5883H30.1666Z" fill="#7C7C7C"/>
<path d="M16.7539 24.5408C16.405 24.5408 16.1211 24.8236 16.1211 25.1713C16.1211 25.519 16.405 25.8018 16.7539 25.8018C17.1028 25.8018 17.3867 25.519 17.3867 25.1713C17.3867 24.8236 17.1028 24.5408 16.7539 24.5408Z" fill="#7C7C7C"/>
<path d="M27.5336 24.5408C27.1846 24.5408 26.9008 24.8236 26.9008 25.1713C26.9008 25.519 27.1846 25.8018 27.5336 25.8018C27.8825 25.8018 28.1664 25.519 28.1664 25.1713C28.1664 24.8236 27.8825 24.5408 27.5336 24.5408Z" fill="#7C7C7C"/>
<path d="M23.9403 23.2393H19.3679C19.1988 23.2393 19.0616 23.3758 19.0616 23.5444C19.0616 23.7129 19.1987 23.8495 19.3679 23.8495H23.9403C24.1094 23.8495 24.2465 23.7129 24.2465 23.5444C24.2465 23.3758 24.1095 23.2393 23.9403 23.2393Z" fill="#7C7C7C"/>
<path d="M16.1012 21.9375H12.1819C12.0129 21.9375 11.8757 22.0741 11.8757 22.2426C11.8757 22.4111 12.0128 22.5477 12.1819 22.5477H16.1012C16.2703 22.5477 16.4074 22.4111 16.4074 22.2426C16.4074 22.0741 16.2703 21.9375 16.1012 21.9375Z" fill="#7C7C7C"/>
<path d="M21.871 17.7961C21.7514 17.677 21.5575 17.677 21.4379 17.7962L18.715 20.5093L17.2985 19.0979C17.1789 18.9787 16.985 18.9787 16.8654 19.0979C16.7459 19.217 16.7459 19.4102 16.8654 19.5293L18.4985 21.1565C18.5583 21.2161 18.6366 21.2459 18.715 21.2459C18.7933 21.2459 18.8717 21.2161 18.9315 21.1565L21.8709 18.2276C21.9905 18.1084 21.9905 17.9153 21.871 17.7961Z" fill="#7C7C7C"/>
<circle cx="21" cy="21" r="15" stroke="#7C7C7C" stroke-width="2"/>
<path d="M21.6891 36.3601C12.8525 36.3601 5.68909 29.8367 5.68909 21.0001C5.68909 12.1636 12.8525 5.64014 21.6891 5.64014" stroke="#F3D470" stroke-width="3"/>
</svg>
