<svg width="28" height="28" viewBox="0 0 28 28" fill="none" xmlns="http://www.w3.org/2000/svg">
<g clip-path="url(#clip0_6978_16214)">
<path fill-rule="evenodd" clip-rule="evenodd" d="M17.6356 9.324L16.3179 9.32487C15.2845 9.32487 15.0841 9.81575 15.0841 10.5359V12.1249H17.549L17.2279 14.6143H15.0841V21H12.5142V14.6143H10.3652V12.1249H12.5142V10.29C12.5142 8.15938 13.8154 7 15.715 7C16.625 7 17.4073 7.06738 17.6356 7.098V9.324ZM14 0C6.2685 0 0 6.26762 0 14C0 21.7315 6.2685 28 14 28C21.7324 28 28 21.7315 28 14C28 6.26762 21.7324 0 14 0Z" fill="white"/>
</g>
<defs>
<clipPath id="clip0_6978_16214">
<rect width="28" height="28" fill="white"/>
</clipPath>
</defs>
</svg>
