<svg width="10" height="10" viewBox="0 0 10 10" fill="none" xmlns="http://www.w3.org/2000/svg">
<path d="M1.8274 2.74564V0.474194C1.8274 0.212399 1.61586 0 1.35478 0C1.0937 0 0.882159 0.212399 0.882159 0.474194V2.74566C0.368425 2.93897 0 3.43273 0 4.0149C0 4.59707 0.368425 5.09081 0.882159 5.28412V9.32581C0.882159 9.5876 1.0937 9.8 1.35478 9.8C1.61586 9.8 1.8274 9.5876 1.8274 9.32581V5.28414C2.34119 5.09083 2.70971 4.59709 2.70971 4.0149C2.70971 3.43271 2.34119 2.93895 1.8274 2.74564Z" fill="#10223E"/>
<path d="M5.35645 4.81099V0.474194C5.35645 0.212399 5.14491 0 4.88383 0C4.62275 0 4.41121 0.212399 4.41121 0.474194V4.81099C3.89748 5.00431 3.52905 5.49807 3.52905 6.08024C3.52905 6.6624 3.89748 7.15614 4.41121 7.34946V9.32581C4.41121 9.5876 4.62275 9.8 4.88383 9.8C5.14491 9.8 5.35645 9.5876 5.35645 9.32581V7.34948C5.87022 7.15618 6.23861 6.66242 6.23861 6.08024C6.23861 5.49805 5.87022 5.00429 5.35645 4.81099Z" fill="#10223E"/>
<path d="M8.88517 2.74566V0.474194C8.88517 0.212399 8.67363 0 8.41255 0C8.15147 0 7.93993 0.212399 7.93993 0.474194V2.74564C7.42614 2.93895 7.05762 3.43271 7.05762 4.0149C7.05762 4.59709 7.42614 5.09083 7.93993 5.28414V9.32581C7.93993 9.5876 8.15147 9.8 8.41255 9.8C8.67363 9.8 8.88517 9.5876 8.88517 9.32581V5.28414C9.39894 5.09085 9.76733 4.59709 9.76733 4.0149C9.76733 3.43271 9.39894 2.93895 8.88517 2.74566Z" fill="#10223E"/>
</svg>
