<svg width="42" height="42" viewBox="0 0 42 42" fill="none" xmlns="http://www.w3.org/2000/svg">
<path d="M29.8401 13.6101C29.3294 13.0991 28.7229 12.6938 28.0555 12.4172C27.388 12.1406 26.6726 11.9983 25.9501 11.9983C25.2276 11.9983 24.5122 12.1406 23.8448 12.4172C23.1773 12.6938 22.5709 13.0991 22.0601 13.6101L21.0001 14.6701L19.9401 13.6101C18.9084 12.5784 17.5092 11.9988 16.0501 11.9988C14.5911 11.9988 13.1918 12.5784 12.1601 13.6101C11.1284 14.6418 10.5488 16.0411 10.5488 17.5001C10.5488 18.9591 11.1284 20.3584 12.1601 21.3901L13.2201 22.4501L21.0001 30.2301L28.7801 22.4501L29.8401 21.3901C30.3511 20.8794 30.7565 20.2729 31.033 19.6055C31.3096 18.938 31.4519 18.2226 31.4519 17.5001C31.4519 16.7776 31.3096 16.0622 31.033 15.3948C30.7565 14.7273 30.3511 14.1209 29.8401 13.6101V13.6101Z" stroke="#10223E" stroke-width="2" stroke-linecap="round" stroke-linejoin="round"/>
</svg>
