<svg width="14" height="14" viewBox="0 0 14 14" fill="none" xmlns="http://www.w3.org/2000/svg">
<g clip-path="url(#clip0_6978_16246)">
<g clip-path="url(#clip1_6978_16246)">
<path d="M13.2708 13.8541H8.80825C8.48742 13.8541 8.22492 13.5916 8.22492 13.2708V10.5C8.22492 9.79996 7.67075 9.24579 6.97075 9.24579C6.27075 9.24579 5.71659 9.79996 5.71659 10.5V13.2708C5.71659 13.5916 5.45409 13.8541 5.13325 13.8541H0.729085C0.408252 13.8541 0.145752 13.5916 0.145752 13.2708V5.80412C0.145752 5.27912 0.408252 4.78329 0.816585 4.49162L6.67909 0.262451C6.88325 0.116618 7.14575 0.116618 7.34992 0.262451L13.2124 4.49162C13.6208 4.78329 13.8833 5.27912 13.8833 5.80412V13.3C13.8541 13.5916 13.5916 13.8541 13.2708 13.8541ZM9.39159 12.7166H12.7166V5.80412C12.7166 5.65829 12.6291 5.51246 12.5124 5.42496L6.99992 1.42912L1.48742 5.39579C1.37075 5.48329 1.28325 5.62912 1.28325 5.77496V12.6875H4.60825V10.5C4.60825 9.18746 5.68742 8.10829 6.99992 8.10829C8.31242 8.10829 9.39159 9.18746 9.39159 10.5V12.7166Z" fill="#F9F9F9"/>
</g>
</g>
<defs>
<clipPath id="clip0_6978_16246">
<rect width="14" height="14" fill="white"/>
</clipPath>
<clipPath id="clip1_6978_16246">
<rect width="14" height="14" fill="white"/>
</clipPath>
</defs>
</svg>
