<svg width="28" height="28" viewBox="0 0 28 28" fill="none" xmlns="http://www.w3.org/2000/svg">
<circle cx="14" cy="14" r="14" fill="white"/>
<g clip-path="url(#clip0_6978_16219)">
<path d="M17.5002 7H10.5004C8.57562 7 7.00049 8.57513 7.00049 10.4999V17.5001C7.00049 19.4244 8.57562 21 10.5004 21H17.5002C19.425 21 21.0001 19.4244 21.0001 17.5001V10.4999C21.0001 8.57513 19.425 7 17.5002 7ZM19.8334 17.5001C19.8334 18.7863 18.7872 19.8333 17.5002 19.8333H10.5004C9.21401 19.8333 8.16718 18.7863 8.16718 17.5001V10.4999C8.16718 9.21335 9.21401 8.1667 10.5004 8.1667H17.5002C18.7872 8.1667 19.8334 9.21335 19.8334 10.4999V17.5001Z" fill="#10223E"/>
<path d="M17.7922 11.0832C18.2755 11.0832 18.6672 10.6915 18.6672 10.2082C18.6672 9.72499 18.2755 9.33325 17.7922 9.33325C17.309 9.33325 16.9172 9.72499 16.9172 10.2082C16.9172 10.6915 17.309 11.0832 17.7922 11.0832Z" fill="#10223E"/>
<path d="M14.0002 10.5C12.0668 10.5 10.5002 12.0667 10.5002 13.9999C10.5002 15.9324 12.0668 17.5002 14.0002 17.5002C15.933 17.5002 17.5001 15.9324 17.5001 13.9999C17.5001 12.0667 15.933 10.5 14.0002 10.5ZM14.0002 16.3335C12.7116 16.3335 11.6669 15.2888 11.6669 13.9999C11.6669 12.7111 12.7116 11.6667 14.0002 11.6667C15.2887 11.6667 16.3334 12.7111 16.3334 13.9999C16.3334 15.2888 15.2887 16.3335 14.0002 16.3335Z" fill="#10223E"/>
</g>
<defs>
<clipPath id="clip0_6978_16219">
<rect width="14" height="14" fill="white" transform="translate(7 7)"/>
</clipPath>
</defs>
</svg>
