<svg width="14" height="14" viewBox="0 0 14 14" fill="none" xmlns="http://www.w3.org/2000/svg">
<path d="M11.8182 5.90909C11.8182 9.72727 6.90909 13 6.90909 13C6.90909 13 2 9.72727 2 5.90909C2 4.60712 2.51721 3.35847 3.43784 2.43784C4.35847 1.51721 5.60712 1 6.90909 1C8.21106 1 9.45971 1.51721 10.3803 2.43784C11.301 3.35847 11.8182 4.60712 11.8182 5.90909Z" stroke="black" stroke-linecap="round" stroke-linejoin="round"/>
<path d="M6.90907 7.54543C7.81281 7.54543 8.54543 6.81281 8.54543 5.90907C8.54543 5.00533 7.81281 4.27271 6.90907 4.27271C6.00533 4.27271 5.27271 5.00533 5.27271 5.90907C5.27271 6.81281 6.00533 7.54543 6.90907 7.54543Z" stroke="black" stroke-linecap="round" stroke-linejoin="round"/>
</svg>
