<svg width="189" height="42" viewBox="0 0 189 42" fill="none" xmlns="http://www.w3.org/2000/svg">
<path d="M21.4443 9.78491L4 39.8848H38.8886L21.4443 9.78491Z" fill="#F3F3F3"/>
<path fill-rule="evenodd" clip-rule="evenodd" d="M21.6919 26.6749C22.5827 26.6749 23.2879 25.1699 23.2879 23.3499C23.2879 21.4949 22.5827 20.0249 21.6919 20.0249C20.8011 20.0249 20.0959 21.5299 20.0959 23.3499C20.0959 25.1699 20.8011 26.6749 21.6919 26.6749Z" fill="#E7C263"/>
<path fill-rule="evenodd" clip-rule="evenodd" d="M19.6882 31.7848C14.7147 31.8198 8.85049 26.2549 7.77414 21.7749C6.92049 18.2399 7.21741 15.2999 9.66703 10.365C10.1867 9.31497 10.7063 8.71997 10.7063 8.71997C10.7063 8.71997 9.14742 12.43 9.22165 16.0349C9.37011 22.9649 12.3765 26.5699 18.1665 30.1049C18.7974 30.4898 19.0201 30.5949 19.3913 31.0498C19.7624 31.5398 19.6882 31.7848 19.6882 31.7848Z" fill="#E7C263"/>
<path fill-rule="evenodd" clip-rule="evenodd" d="M19.9474 29.8952C19.9474 29.8952 19.7989 28.5652 17.5348 26.8852C13.3408 23.8402 11.2623 19.0452 12.2273 14.0053C12.6727 11.6953 13.5264 9.00028 14.4171 7.60029C15.3079 6.20029 16.4956 4.3103 16.4956 4.3103C11.2252 9.77028 7.29097 18.2052 12.747 24.8552C14.2316 26.6752 16.5327 28.2852 17.6091 28.8802C18.6483 29.4752 19.9474 29.8952 19.9474 29.8952Z" fill="#E7C263"/>
<path fill-rule="evenodd" clip-rule="evenodd" d="M18.8709 26.9549C18.8709 26.9549 18.8338 25.0299 17.6461 23.8749C12.4499 18.9399 14.0087 8.54497 20.7638 2C13.9716 6.58498 9.92604 18.3799 15.9388 24.6799C17.2378 26.0799 18.8709 26.9549 18.8709 26.9549Z" fill="#E7C263"/>
<path fill-rule="evenodd" clip-rule="evenodd" d="M23.5106 31.7848C28.484 31.8198 34.3854 26.2898 35.4618 21.8098C36.3154 18.2748 36.0185 15.3348 33.5689 10.3999C33.0492 9.34988 32.5296 8.75488 32.5296 8.75488C32.5296 8.75488 34.0885 12.4649 34.0143 16.0698C33.8658 22.9998 30.8594 26.6048 25.0694 30.1398C24.4384 30.5248 24.2157 30.6298 23.8446 31.0848C23.4734 31.5398 23.5106 31.7848 23.5106 31.7848Z" fill="#E7C263"/>
<path fill-rule="evenodd" clip-rule="evenodd" d="M23.2505 29.8952C23.2505 29.8952 23.399 28.5652 25.663 26.8852C29.8942 23.8402 31.9355 19.0452 30.9705 14.0053C30.5622 11.6953 29.6715 9.03528 28.7807 7.60029C27.8899 6.20029 26.7022 4.3103 26.7022 4.3103C31.9726 9.77028 35.9068 18.2052 30.4509 24.8552C28.9663 26.6752 26.6651 28.2852 25.5888 28.8802C24.5495 29.4752 23.2505 29.8952 23.2505 29.8952Z" fill="#E7C263"/>
<path fill-rule="evenodd" clip-rule="evenodd" d="M24.3272 26.9549C24.3272 26.9549 24.3643 25.0299 25.552 23.8749C30.7482 18.9399 29.1894 8.54497 22.4343 2C29.1894 6.61998 33.2349 18.4149 27.2222 24.7149C25.9603 26.0799 24.3272 26.9549 24.3272 26.9549Z" fill="#E7C263"/>
<path d="M62.7826 28.259V22.138H56.9376V28.259H53V13.2322H56.9376V19.121H62.7826V13.2322H66.7202V28.259H62.7826Z" fill="white"/>
<path d="M79.0868 25.358H72.9958L72.0114 28.259H67.9814L73.8879 13.2322H78.1947L84.1319 28.259H80.102L79.0868 25.358ZM73.9802 22.4281H78.0716L76.0413 16.0751L73.9802 22.4281Z" fill="white"/>
<path d="M97.2986 28.549C92.0997 28.549 89.1772 25.0098 89.1772 20.7745C89.1772 16.5391 92.1305 13 97.2986 13C102.436 13 105.42 16.5391 105.42 20.7745C105.42 25.0098 102.467 28.549 97.2986 28.549ZM101.513 20.7455C101.513 17.9316 100.067 15.9009 97.2986 15.9009C94.53 15.9009 93.0841 17.9316 93.0841 20.7455C93.0841 23.5594 94.53 25.59 97.2986 25.59C100.098 25.59 101.513 23.5594 101.513 20.7455Z" fill="white"/>
<path d="M112.003 16.1621L111.603 19.5272C110.773 26.2863 108.527 28.346 106.189 28.5201L105.02 25.7642C106.712 25.213 107.85 23.3854 108.312 18.5119L108.804 13.2322H119.417V28.259H115.479V16.1621H112.003Z" fill="white"/>
<path d="M131.876 28.259V18.5699L125.815 28.259H121.878V13.2322H125.815V22.7182L131.876 13.2322H135.813V28.259H131.876Z" fill="white"/>
<path d="M148.98 25.8802H145.196L142.089 19.8463L141.597 28.259H137.751L138.982 13.2322H142.52L147.103 22.4281L151.687 13.2322H155.225L156.424 28.259H152.579L152.087 19.8463L148.98 25.8802Z" fill="white"/>
<path d="M171.929 13.2322V28.259H167.992V16.1621H162.301V28.259H158.363V13.2322H171.929Z" fill="white"/>
<path d="M174.206 13.2322H184.142V16.1621H178.144V19.1791H183.866V22.109H178.144V25.3H184.204V28.2299H174.206V13.2322Z" fill="white"/>
</svg>
