<svg width="17" height="17" viewBox="0 0 17 17" fill="none" xmlns="http://www.w3.org/2000/svg">
<path d="M16.1634 14.9567L13.0014 11.7587C13.9597 10.4899 14.4853 8.95088 14.4855 7.32692C14.4855 5.36988 13.7319 3.52984 12.3634 2.14602C10.9952 0.762207 9.17614 0 7.24091 0C5.30592 0 3.48662 0.762207 2.11839 2.14602C-0.706131 5.00298 -0.706131 9.65133 2.11839 12.5078C3.48662 13.8919 5.30592 14.6541 7.24091 14.6541C8.84658 14.6539 10.3682 14.1223 11.6227 13.1531L14.7847 16.3511C14.9749 16.5437 15.2246 16.64 15.4741 16.64C15.7235 16.64 15.9732 16.5437 16.1634 16.3511C16.5443 15.9661 16.5443 15.3416 16.1634 14.9567ZM3.49709 11.1134C1.43285 9.02563 1.43309 5.62844 3.49709 3.54044C4.49708 2.5293 5.82674 1.97221 7.24091 1.97221C8.65532 1.97221 9.98474 2.5293 10.9847 3.54044C11.9847 4.55182 12.5355 5.89663 12.5355 7.32692C12.5355 8.75744 11.9847 10.102 10.9847 11.1134C9.98474 12.1248 8.65532 12.6819 7.24091 12.6819C5.82674 12.6819 4.49708 12.1248 3.49709 11.1134Z" fill="black"/>
</svg>
