<svg width="42" height="42" viewBox="0 0 42 42" fill="none" xmlns="http://www.w3.org/2000/svg">
<rect width="42" height="42" rx="6" fill="#F3D470"/>
<path d="M25.8995 22.1965C25.6016 22.1965 25.3479 21.9679 25.3212 21.6645C25.2927 21.3437 25.5292 21.0605 25.8489 21.0322H25.8495C25.8884 20.7125 26.1761 20.4871 26.4973 20.5244C26.8161 20.5638 27.0425 20.8549 27.0032 21.1745C26.9367 21.7173 26.4941 22.1461 25.9512 22.1942C25.9338 22.196 25.9163 22.1965 25.8995 22.1965Z" fill="#10223E"/>
<path d="M16.46 23.0256C16.1618 23.0256 15.9081 22.7966 15.8817 22.493C15.8535 22.1719 16.0903 21.8892 16.41 21.861L25.8499 21.032C26.1713 21.0023 26.4515 21.2415 26.4794 21.5623C26.5076 21.8834 26.2707 22.166 25.951 22.1943L16.5111 23.0232C16.4943 23.0247 16.4768 23.0256 16.46 23.0256Z" fill="#10223E"/>
<path d="M26.4266 21.6868C26.4028 21.6868 26.379 21.6854 26.3549 21.6824C26.0361 21.6431 25.8097 21.352 25.8489 21.0323L26.5542 15.2856C26.5937 14.9659 26.8858 14.7387 27.202 14.7781C27.5208 14.8175 27.7472 15.1086 27.7079 15.4282L27.0026 21.1749C26.9666 21.4704 26.7158 21.6868 26.4266 21.6868Z" fill="#10223E"/>
<path d="M14.9107 17.0131C14.6125 17.0131 14.3588 16.7841 14.3324 16.4805C14.3042 16.1594 14.541 15.8767 14.8607 15.8484L27.0803 14.7754C27.4011 14.7459 27.6819 14.9848 27.7098 15.3057C27.7379 15.6268 27.5011 15.9094 27.1814 15.9377L14.9618 17.0107C14.9447 17.0122 14.9275 17.0131 14.9107 17.0131Z" fill="#10223E"/>
<path d="M14.7586 15.8732C14.4721 15.8732 14.2225 15.6603 14.1835 15.3672V15.3666C13.8627 15.3666 13.6023 15.1056 13.6023 14.7833C13.6023 14.461 13.8627 14.2 14.1835 14.2C14.7636 14.2 15.2588 14.6351 15.3358 15.2123C15.3782 15.5317 15.1547 15.8251 14.8365 15.868C14.8101 15.8715 14.7845 15.8732 14.7586 15.8732Z" fill="#10223E"/>
<path d="M14.1836 15.367H13.1813C12.8605 15.367 12.6001 15.1057 12.6001 14.7837C12.6001 14.4617 12.8605 14.2003 13.1813 14.2003H14.1836C14.5045 14.2003 14.7649 14.4617 14.7649 14.7837C14.7649 15.1057 14.5048 15.367 14.1836 15.367Z" fill="#10223E"/>
<path d="M15.5715 21.9852C15.285 21.9852 15.035 21.7723 14.9964 21.4789L14.1841 15.367C14.1417 15.0476 14.3652 14.7542 14.6834 14.7116C14.9996 14.6684 15.2943 14.8933 15.3364 15.2127L16.1484 21.3249C16.1908 21.6442 15.9673 21.9377 15.6491 21.9802C15.6229 21.9837 15.5974 21.9852 15.5715 21.9852Z" fill="#10223E"/>
<path d="M18.1852 27.6169C17.0826 27.6169 16.1509 26.6818 16.1509 25.5752C16.1509 24.4687 17.0826 23.5336 18.1852 23.5336C19.2877 23.5336 20.2194 24.4687 20.2194 25.5752C20.2194 26.6818 19.2877 27.6169 18.1852 27.6169ZM18.1852 24.7002C17.7208 24.7002 17.3133 25.1092 17.3133 25.5752C17.3133 26.0413 17.7208 26.4502 18.1852 26.4502C18.6496 26.4502 19.057 26.0413 19.057 25.5752C19.057 25.1092 18.6493 24.7002 18.1852 24.7002Z" fill="#10223E"/>
<path d="M23.7069 27.6169C22.6043 27.6169 21.6726 26.6818 21.6726 25.5752C21.6726 24.4687 22.6043 23.5336 23.7069 23.5336C24.8095 23.5336 25.7412 24.4687 25.7412 25.5752C25.7412 26.6818 24.8095 27.6169 23.7069 27.6169ZM23.7069 24.7002C23.2425 24.7002 22.8351 25.1092 22.8351 25.5752C22.8351 26.0413 23.2425 26.4502 23.7069 26.4502C24.1713 26.4502 24.5787 26.0413 24.5787 25.5752C24.5787 25.1092 24.171 24.7002 23.7069 24.7002Z" fill="#10223E"/>
<path d="M16.7218 22.9978C15.8555 22.9978 15.1127 22.3567 14.9961 21.4788C14.9537 21.1594 15.1775 20.866 15.4957 20.8237C15.8116 20.7803 16.1063 21.0057 16.1484 21.3251C16.1897 21.6351 16.4698 21.8536 16.775 21.8291C17.1019 21.8011 17.3768 22.0388 17.4047 22.3594C17.4329 22.6802 17.1961 22.9631 16.8767 22.9914C16.8247 22.9955 16.7726 22.9978 16.7218 22.9978Z" fill="#10223E"/>
</svg>
