<svg width="21" height="21" viewBox="0 0 21 21" fill="none" xmlns="http://www.w3.org/2000/svg">
<path d="M10.5 19C10.2295 19 9.96873 18.9015 9.7655 18.7224C8.99794 18.0475 8.25793 17.4132 7.60503 16.8536L7.6017 16.8507C5.68752 15.2102 4.03456 13.7935 2.88446 12.3979C1.59882 10.8378 1 9.35852 1 7.74252C1 6.17244 1.53533 4.72395 2.50728 3.66367C3.49082 2.59086 4.84039 2 6.3078 2C7.40456 2 8.40897 2.34871 9.29308 3.03637C9.73926 3.38348 10.1437 3.80829 10.5 4.3038C10.8565 3.80829 11.2607 3.38348 11.7071 3.03637C12.5912 2.34871 13.5956 2 14.6923 2C16.1596 2 17.5093 2.59086 18.4929 3.66367C19.4648 4.72395 20 6.17244 20 7.74252C20 9.35852 19.4013 10.8378 18.1157 12.3978C16.9656 13.7935 15.3128 15.2101 13.3989 16.8504C12.7448 17.4108 12.0037 18.0461 11.2344 18.7227C11.0313 18.9015 10.7703 19 10.5 19ZM6.3078 3.11932C5.15495 3.11932 4.09588 3.58203 3.32542 4.42232C2.54352 5.2753 2.11285 6.45439 2.11285 7.74252C2.11285 9.10165 2.61513 10.3172 3.74131 11.6838C4.8298 13.0047 6.44884 14.3923 8.32345 15.9989L8.32693 16.0018C8.98228 16.5635 9.7252 17.2003 10.4984 17.8802C11.2763 17.199 12.0203 16.5612 12.677 15.9986C14.5514 14.392 16.1703 13.0047 17.2588 11.6838C18.3849 10.3172 18.8872 9.10165 18.8872 7.74252C18.8872 6.45439 18.4565 5.2753 17.6746 4.42232C16.9043 3.58203 15.8451 3.11932 14.6923 3.11932C13.8478 3.11932 13.0724 3.38931 12.3878 3.92171C11.7777 4.39637 11.3526 4.99642 11.1035 5.41627C10.9753 5.63217 10.7498 5.76105 10.5 5.76105C10.2502 5.76105 10.0247 5.63217 9.89654 5.41627C9.6475 4.99642 9.22248 4.39637 8.61221 3.92171C7.92757 3.38931 7.15218 3.11932 6.3078 3.11932Z" fill="#10223E"/>
</svg>
