<svg width="28" height="28" viewBox="0 0 28 28" fill="none" xmlns="http://www.w3.org/2000/svg">
<ellipse cx="14" cy="14" rx="14" ry="14" fill="white"/>
<path fill-rule="evenodd" clip-rule="evenodd" d="M20.6351 11.1075C20.7441 10.765 20.6351 10.5163 20.1522 10.5163H18.5487C18.3992 10.508 18.251 10.5471 18.1252 10.6282C17.9994 10.7093 17.9025 10.828 17.8484 10.9675C17.3469 12.15 16.6811 13.2559 15.8706 14.2523C15.4971 14.6259 15.3261 14.7507 15.1236 14.7507C15.0145 14.7507 14.8745 14.6259 14.8745 14.2833V11.0921C14.8745 10.6872 14.7497 10.5004 14.4074 10.5004H11.9488C11.8976 10.498 11.8464 10.5057 11.7982 10.5232C11.7501 10.5407 11.7058 10.5677 11.6682 10.6024C11.6305 10.6372 11.6001 10.6791 11.5788 10.7257C11.5575 10.7723 11.5456 10.8227 11.544 10.874C11.544 11.2633 12.1201 11.3566 12.1824 12.4466V14.8126C12.1824 15.3265 12.0888 15.4201 11.8866 15.4201C11.3414 15.4201 9.79913 13.4117 9.00494 11.123C8.84913 10.6714 8.694 10.5004 8.28883 10.5004H6.66983C6.20274 10.5004 6.125 10.7182 6.125 10.9517C6.125 11.9801 9.03186 19.2342 13.7226 19.2342C14.7497 19.2342 14.8745 19.001 14.8745 18.6116V17.1639C14.8745 16.6965 14.9681 16.6187 15.2948 16.6187C16.1297 16.6187 17.6407 18.4837 18.0311 18.8744C18.1212 18.9882 18.2352 19.0808 18.3649 19.1456C18.4947 19.2105 18.6371 19.2462 18.7822 19.25H20.3857C20.8528 19.25 21.0153 18.9663 20.8912 18.515C20.6024 17.5862 18.5937 15.6755 18.4867 15.5291C18.2529 15.2175 18.3151 15.0933 18.4867 14.8126C18.4709 14.8126 20.4325 12.0417 20.6351 11.1075Z" fill="#10223E"/>
</svg>
